<?xml version="1.0" encoding="utf-8"?>
<!-- Generator: Adobe Illustrator 17.0.0, SVG Export Plug-In . SVG Version: 6.00 Build 0)  -->
<!DOCTYPE svg PUBLIC "-//W3C//DTD SVG 1.1//EN" "http://www.w3.org/Graphics/SVG/1.1/DTD/svg11.dtd">
<svg version="1.1" id="Layer_1" xmlns="http://www.w3.org/2000/svg" xmlns:xlink="http://www.w3.org/1999/xlink" x="0px" y="0px"
	 width="255.12px" height="153.07px" viewBox="0 0 255.12 153.07" enable-background="new 0 0 255.12 153.07" xml:space="preserve">
<g>
	<g>
		<path fill="#FFFFFF" stroke="#FFFFFF" stroke-miterlimit="10" d="M152.225,136.051c-0.565-0.075-1.127-0.113-1.673-0.113
			c-3.827,0-6.083,1.854-6.875,2.65c-0.311,0.312-0.95,0.814-1.567,1.299c-2.06,1.618-3.094,2.43-2.695,3.587
			c0.077,0.221,0.409,0.943,1.478,0.943c0.283,0,0.621-0.047,1.061-0.149c0.124-0.028,12.259-3.642,12.12-6.627
			C154.056,137.235,153.838,136.266,152.225,136.051z M144.91,140.75c0.185-0.159,0.351-0.31,0.488-0.448
			c0.554-0.558,2.103-1.825,4.801-1.927C148.826,139.12,146.784,140.026,144.91,140.75z"/>
	</g>
</g>
<g>
	<g>
		<path fill="#FFFFFF" stroke="#FFFFFF" stroke-miterlimit="10" d="M200.616,94.998c-0.248-0.066-0.498-0.051-0.724,0.028
			c-0.759-0.282-2.222-1.096-3.343-3.37c-0.453-0.917-1.723-3.117-3.727-3.736c-0.974-0.301-1.975-0.181-2.9,0.34
			c-0.171,0.096-0.268,0.121-0.278,0.135c-0.207-0.159-0.508-0.903-0.672-1.307c-0.423-1.042-0.901-2.224-2.116-2.455
			c-1.363-0.26-2.124,0.334-2.455,0.711c-0.892,1.012-0.912,2.772-0.066,5.381c0.51,1.571,1.228,3.257,2.687,3.847
			c0.966,0.392,2.065,0.247,3.364-0.443c0.102-0.056,0.318-0.169,0.785,0.208c1.085,0.876,1.894,3.182,1.546,4.404
			c-0.684,2.405-9.512,8.142-15.03,8.501c-2.507,0.173-2.961-0.883-3.11-1.227c-0.781-1.809-0.584-5.382-0.378-9.164
			c0.422-7.703,0.948-17.291-7.181-17.76c-0.395-0.019-1.442-0.084-2.009,0.74c-0.607,0.881-0.175,1.847,0.481,3.308
			c1.511,3.371,4.659,10.386,1.574,24.105c-0.412,1.826-0.102,3.49,0.893,4.813c1.949,2.589,5.916,3.191,8.107,3.32
			c0.074,0.005,0.227,0.013,0.232,0.299c0.015,0.818-1.6,3.308-8.959,4.008c-4.304,0.411-9.065,3.601-14.577,7.295
			c-7.65,5.128-16.32,10.94-26.108,10.94c-2.298,0-3.194-1.933-3.472-2.764c-0.723-2.16-0.265-5.243,2.011-6.959
			c1.485-1.123,3.457-6.803,2.86-10.64c-0.452-2.902-2.109-4.061-3.419-4.522c-0.384-0.135-0.091-2.079,0.035-2.91
			c0.31-2.049,0.735-4.857-1.647-5.63c-0.656-0.213-1.339-0.35-1.998-0.482c-2.464-0.496-4.092-0.822-4.327-4.093
			c-0.361-4.995-3.903-5.498-8.806-6.196c-1.656-0.236-3.534-0.502-5.679-0.957c-2.548-0.542-4.394-2.077-5.487-4.565
			c-1.718-3.907-1.103-9.17,0.452-11.806c3.216-5.453,7.971-7.471,11.118-8.808c2.827-1.198,3.248-3.174,3.587-4.763
			c0.177-0.83,0.329-1.546,0.785-2.168c0.871-1.191,2.654-2.255,3.957-3.032c1.056-0.629,1.753-1.046,2.132-1.548
			c1.265-1.672-0.103-2.862-1.103-3.732l-0.261-0.227c-0.251-0.273-0.835-1.913-0.716-4.172c0.066-1.235,0.411-3.517,1.99-4.897
			c1.499-1.313,2.03-0.974,3.604,0.019c0.595,0.377,1.268,0.803,2.079,1.158c1.222,0.536,2.305,0.595,3.214,0.177
			c1.436-0.661,1.919-2.255,2.24-3.309l0.035-0.117c0.423-1.38-0.748-2.439-1.782-3.374c-0.255-0.23-0.654-0.589-0.922-0.889
			c0.377,0.113,0.866,0.248,1.52,0.334c1.833,0.239,4.048-0.04,4.867-1.21c0.07-0.101,0.129-0.207,0.175-0.315
			c0.1,0.096,0.203,0.173,0.301,0.233c1.075,0.667,2.37,0.064,4.011-0.695c1.351-0.627,3.032-1.401,4.225-1.218
			c1.012,0.163,1.752-0.058,2.201-0.646c0.714-0.933,0.187-2.12-0.198-2.986c-0.101-0.225-0.202-0.435-0.245-0.6
			c-0.016-0.062,0.002-0.126,0.053-0.194c0.091-0.118,0.248-0.188,0.419-0.188c1.008,0,1.983-0.756,2.341-1.487
			c0.283-0.578,0.237-1.203-0.125-1.67c-0.677-0.875-1.928-0.616-2.339-0.532c-0.473,0.096-1.074-0.115-1.505-0.527
			c-0.298-0.284-0.629-0.77-0.519-1.469c0.203-1.284,2.019-1.546,4.022-1.72c0.231-0.019,0.448-0.039,0.643-0.06
			c0.628-0.067,1.438-0.322,2.464-0.646c2.244-0.708,5.633-1.777,8.653-1.186c2.104,0.413,5.008,1.911,7.57,3.231
			c3.508,1.81,5.739,2.912,7.284,2.687c0.392-0.056,1.112-0.159,1.571-0.628c0,0.079,0.004,0.159,0.011,0.241
			c0.142,1.464,1.692,3.195,4.377,3.671c1.39,0.247,2.178-0.435,2.602-0.801c0.053-0.045,0.119-0.103,0.17-0.142
			c0.04,0.013,0.098,0.038,0.177,0.08c0.491,0.259,1.091,0.158,1.465-0.251c0,0,0.612-0.671,0.867-0.914
			c0.045-0.03,0.087-0.064,0.128-0.101c0.497-0.451,0.536-1.22,0.085-1.717c-0.23-0.254-0.558-0.4-0.899-0.401
			c-0.467-0.017-0.72,0.151-1.425,0.898c-1.096-0.21-1.782,0.386-2.153,0.706c-0.313,0.271-0.343,0.292-0.59,0.248
			c-1.418-0.251-2.103-0.956-2.312-1.328c0.499-0.285,0.821-0.757,0.878-1.307c0.085-0.826-0.432-1.69-1.385-2.309
			c-1.184-0.771-2.584-0.869-3.652-0.256c-0.73,0.42-0.955,0.955-1.014,1.331c-0.027,0.163-0.027,0.316-0.008,0.459
			c-1.246-0.362-3.397-1.471-5.06-2.329c-2.838-1.464-5.772-2.976-8.215-3.456c-3.629-0.711-7.373,0.469-9.852,1.253
			c-0.825,0.26-1.604,0.505-1.99,0.547l-0.596,0.055c-1.99,0.173-5.695,0.494-6.211,3.76c-0.213,1.336,0.241,2.651,1.24,3.607
			c0.373,0.356,0.799,0.64,1.251,0.846c-0.103,0.098-0.199,0.205-0.288,0.32c-0.514,0.666-0.689,1.503-0.48,2.298
			c0.083,0.311,0.225,0.631,0.375,0.968c0.024,0.056,0.053,0.121,0.085,0.193c-1.776-0.072-3.612,0.769-5.116,1.465
			c-0.141,0.066-0.293,0.136-0.447,0.207c0.262-0.39,0.465-0.875,0.469-1.481c0.01-1.158-0.717-2.375-2.284-3.829
			c-0.296-0.275-0.91-0.844-0.931-1.039c0-0.001,0.005-0.094,0.152-0.306c0.881-1.274,1.252-2.409,0.204-3.804
			c-0.904-1.197-4.605-1.509-6.174-0.77c-1.022,0.48-1.502,1.431-1.252,2.482c0.033,0.134,0.072,0.265,0.117,0.392
			c-0.282-0.066-0.603-0.084-0.962-0.023c-2.46,0.432-4.183,1.754-4.607,3.534c-0.281,1.178,0.096,2.356,0.957,2.999
			c1.178,0.883,2.347,0.871,3.395,0.487c-0.322,0.51-0.492,1.079-0.369,1.657c0.079,0.371,0.248,0.683,0.505,0.938
			c-0.265,0.126-0.535,0.33-0.797,0.644c-1.497,1.782,0.43,3.523,1.465,4.458c0.33,0.298,0.858,0.774,1.034,1.04
			c-0.194,0.637-0.482,1.55-0.914,1.749c-0.243,0.112-0.679,0.043-1.223-0.196c-0.641-0.281-1.208-0.639-1.755-0.985
			c-1.704-1.079-3.637-2.3-6.503,0.204c-2.462,2.153-2.834,5.496-2.835,7.298c-0.002,2.018,0.475,4.474,1.545,5.415l0.281,0.245
			c0.207,0.18,0.445,0.388,0.612,0.55c-0.293,0.214-0.856,0.55-1.291,0.81c-1.482,0.884-3.51,2.094-4.672,3.683
			c-0.763,1.041-0.996,2.133-1.201,3.095c-0.299,1.403-0.497,2.329-2.16,3.035c-3.231,1.372-8.641,3.666-12.263,9.81
			c-1.9,3.222-2.637,9.346-0.583,14.019c1.407,3.199,3.898,5.261,7.208,5.964c2.227,0.473,4.147,0.746,5.842,0.986
			c5.156,0.734,6.514,1.046,6.724,3.965c0.369,5.114,3.781,5.8,6.272,6.301c0.62,0.124,1.205,0.242,1.728,0.411
			c0.422,0.136,0.134,2.041-0.005,2.956c-0.304,2.011-0.72,4.763,1.561,5.565c0.935,0.329,1.515,1.084,1.77,2.307
			c0.69,3.313-1.243,8.039-1.87,8.623c-3.34,2.517-3.819,6.778-2.851,9.669c0.927,2.77,3.087,4.423,5.777,4.423
			c10.525,0,19.523-6.03,27.461-11.344c5.237-3.511,9.76-6.542,13.453-6.894c8.308-0.791,11.204-3.98,11.16-6.471
			c-0.027-1.468-1.085-2.596-2.518-2.68c-3.015-0.177-5.315-1.036-6.309-2.357c-0.569-0.756-0.72-1.678-0.464-2.818
			c3.262-14.509-0.236-22.304-1.729-25.633c-0.084-0.187-0.173-0.383-0.253-0.567c4.729,0.716,4.778,6.762,4.319,15.141
			c-0.233,4.252-0.435,7.924,0.572,10.258c0.584,1.353,2.021,2.917,5.498,2.69c5.989-0.391,16.121-6.433,17.209-10.263
			c0.61-2.15-0.513-5.467-2.357-6.957c-1.089-0.88-2.346-1.048-3.45-0.464c-0.6,0.318-1.069,0.439-1.314,0.338
			c-0.276-0.112-0.724-0.609-1.288-2.346c-0.724-2.23-0.46-2.937-0.491-2.973c0.016-0.002,0.051-0.004,0.103-0.001
			c0.138,0.204,0.329,0.674,0.46,1c0.411,1.013,0.921,2.273,2.12,2.692c0.705,0.245,1.471,0.138,2.278-0.317
			c0.347-0.197,0.651-0.238,0.989-0.134c0.753,0.233,1.621,1.187,2.263,2.489c2.17,4.398,5.594,4.833,5.739,4.848
			c0.596,0.066,1.143-0.304,1.305-0.875c0.022-0.077,0.038-0.149,0.049-0.219l0.011,0.001
			C201.646,95.84,201.263,95.174,200.616,94.998z M128.668,32.196c0.871-0.386,2.622-1.83,2.72-3.415
			c0.052-0.838-0.358-1.585-1.125-2.047c-0.13-0.079-0.259-0.137-0.385-0.177c0.168-0.716-0.204-1.486-0.456-2.004
			c-0.094-0.192-0.196-0.403-0.266-0.587c0.702-0.224,2.507-0.073,3.143,0.224c0.039,0.057,0.056,0.084,0.061,0.084
			c-0.009,0.046-0.064,0.247-0.414,0.753c-1.457,2.111,0.097,3.552,1.125,4.506c1.44,1.335,1.509,1.926,1.508,2.03
			c-0.001,0.149-0.268,0.39-0.503,0.601c-0.362,0.324-0.835,0.751-0.962,1.391c-0.615-0.464-1.822-0.846-4.398-0.846
			c-0.32,0-0.565-0.017-0.751-0.04C128.161,32.49,128.416,32.305,128.668,32.196z M123.682,29.272
			c-0.036-0.029-0.12-0.208-0.046-0.502c0.154-0.62,0.934-1.39,2.664-1.695c0.066,0.012,0.248,0.148,0.356,0.23
			c0.119,0.089,0.315,0.234,0.565,0.358c-0.094,0.081-0.186,0.164-0.279,0.247C125.331,29.334,124.48,29.866,123.682,29.272z"/>
	</g>
</g>
<g>
	<g>
		<path fill="#FFFFFF" stroke="#FFFFFF" stroke-miterlimit="10" d="M127.56,0C85.359,0,51.025,34.334,51.025,76.536
			c0,42.201,34.334,76.534,76.535,76.534s76.535-34.333,76.535-76.534C204.095,34.334,169.761,0,127.56,0z M127.56,150.64
			c-40.862,0-74.105-33.243-74.105-74.104c0-40.862,33.243-74.107,74.105-74.107s74.105,33.244,74.105,74.107
			C201.665,117.397,168.422,150.64,127.56,150.64z"/>
	</g>
</g>
<g>
	<g>
		<path fill="#FFFFFF" stroke="#FFFFFF" stroke-miterlimit="10" d="M96.522,12.112c-0.253-0.391-0.581-0.552-0.942-0.586
			c0.033-0.479-0.124-0.92-0.451-1.242c-0.78-0.769-2.004-0.479-3.421-0.146l-0.604,0.14c-0.655,0.143-1.07,0.791-0.926,1.447
			c0.124,0.56,0.615,0.944,1.164,0.954c-0.095,0.214-0.13,0.465-0.067,0.762c0.056,0.264,0.278,0.865,1.149,1.036
			c-0.459,0.485-0.852,0.91-1.119,1.259c-0.855,1.113-0.996,3.267-0.95,3.84c-0.053,0.366-0.787,1.706-1.579,2.291l-0.457,0.332
			c-0.463,0.332-0.883,0.634-1.201,0.95c-0.52-0.62-1.454-0.562-1.84-0.539c-1.389,0.084-1.958,0.9-2.211,1.544
			c-0.752-0.293-1.498-0.395-2.119,0.542c-0.032,0.047-0.07,0.109-0.131,0.18c-0.677,0.781-2.176,2.739-1.469,4.034
			c0.052,0.096,0.171,0.281,0.38,0.449c-0.595,0.351-1.39,0.603-2.524,0.83c-0.57,0.114-0.741,0.091-0.729,0.089
			c-0.64-0.311-1.177-0.282-2.297,0.128c-1.497,0.548-3.123,2.223-4.431,3.569c-0.464,0.476-1.04,1.07-1.228,1.192
			c-0.702,0.422-1.244,1.194-1.994,2.262c-0.528,0.752-1.186,1.689-2.064,2.739c-1.068,1.278-1.585,2.538-2,3.55
			c-0.436,1.062-0.686,1.628-1.198,1.89c-2.147,1.103-3.744,3.992-4.377,6.365c-0.199,0.751-0.318,1.39-0.42,1.944
			c-0.174,0.946-0.27,1.414-0.558,1.71c-0.023,0.023-0.044,0.045-0.064,0.066c-0.005,0-0.009,0-0.012,0
			c-0.542,0-1.035,0.363-1.176,0.912l-0.081,0.324c-0.102,0.395,0.002,0.814,0.277,1.116c0.233,0.255,0.56,0.398,0.9,0.398
			c0.062,0,0.124-0.005,0.186-0.015c0.621-0.096,1.135-0.514,1.715-1.113c0.812-0.838,0.994-1.822,1.203-2.963
			c0.092-0.501,0.198-1.08,0.379-1.758c0.565-2.124,1.915-4.2,3.138-4.829c1.333-0.684,1.843-1.927,2.336-3.129
			c0.388-0.945,0.788-1.924,1.616-2.912c0.945-1.131,1.635-2.114,2.189-2.903c0.49-0.697,0.996-1.419,1.257-1.576
			c0.42-0.253,0.903-0.741,1.719-1.582c1.013-1.045,2.546-2.623,3.522-2.98c0.267-0.097,0.429-0.145,0.521-0.168
			c0.484,0.208,1.027,0.276,2.145,0.053c2.332-0.465,4.129-1.18,5.314-3.15l0.029-0.05c0.22,0.073,0.434,0.126,0.624,0.174
			c0.207,0.052,0.518,0.13,0.595,0.17c0.285,0.19,0.767,0.385,1.427,0.251c1.81-0.371,3.762-3.157,4.318-4.003
			c0.488-0.743,1.039-1.583,0.502-2.357c1.153-0.999,2.371-2.956,2.291-4.112c-0.04-0.598,0.2-1.947,0.453-2.278
			c0.26-0.337,0.78-0.881,1.33-1.458c0.501-0.524,1.052-1.102,1.573-1.691C96.77,13.351,96.9,12.694,96.522,12.112z M85.307,27.533
			c-0.237-0.114-0.493-0.194-0.751-0.264l0.6-0.486c0.718-0.579,1.3-1.048,1.698-1.481c0.098,0.115,0.225,0.227,0.39,0.323
			C86.401,26.712,85.661,27.346,85.307,27.533z"/>
	</g>
</g>
<g>
	<g>
		<path fill="#FFFFFF" stroke="#FFFFFF" stroke-miterlimit="10" d="M190.806,61.58c-0.432-0.804-0.977-1.82-1.268-2.505
			c1.194-0.288,1.695-1.124,1.747-1.86c0.09-1.263-1.04-2.462-2.635-2.691c-0.394-0.058-0.989-0.145-1.628-0.145
			c-1.29,0-2.246,0.368-2.84,1.093c-0.565,0.69-0.736,1.612-0.509,2.739c0.338,1.668,1.053,3.334,1.686,4.801
			c0.737,1.713,1.499,3.483,1.221,4.371l-0.183,0.573c-0.617,1.9-1.15,3.541,1.532,5.263c0.606,0.389,1.218,0.587,1.82,0.587
			c1.833,0,3.2-1.783,3.654-4.772C193.711,66.989,192.168,64.116,190.806,61.58z M190.999,68.671
			c-0.267,1.766-0.899,2.707-1.251,2.707c-0.123,0-0.307-0.074-0.508-0.202c-1.104-0.709-1.104-0.709-0.533-2.467l0.191-0.596
			c0.548-1.748-0.352-3.843-1.307-6.058c-0.615-1.426-1.249-2.901-1.537-4.322c-0.091-0.449-0.034-0.667,0.008-0.719
			c0.058-0.07,0.333-0.203,0.961-0.203c0.306,0,0.616,0.029,0.89,0.063c-0.323,0.129-0.592,0.351-0.771,0.652
			c-0.669,1.121,0.109,2.572,1.523,5.204C189.669,64.599,191.187,67.426,190.999,68.671z"/>
	</g>
</g>
<g>
	<g>
		<path fill="#FFFFFF" stroke="#FFFFFF" stroke-miterlimit="10" d="M175.874,53.704c-0.858-0.108-1.666-0.111-2.377-0.113
			c-1.514-0.005-2.328-0.036-2.827-0.657c-1.259-1.571-2.554-2.98-4.545-2.98c-0.356,0-0.716,0.044-1.103,0.134
			c-2.209,0.519-3.525,3.144-3.479,5.28c0.045,2.081,1.305,3.608,3.29,3.985c1.802,0.34,3.165,0.147,3.911-0.028
			c0.261-0.061,0.449-0.104,0.617-0.104c0.151,0,0.418,0.033,0.983,0.318c0.803,0.406,1.678,1.042,2.524,1.657
			c1.539,1.119,2.868,2.085,4.172,2.085c0.147,0,0.29-0.012,0.429-0.036c1.599-0.281,2.617-2.741,2.566-4.861
			C179.971,55.775,178.414,54.025,175.874,53.704z M176.946,60.842c-0.565-0.096-1.762-0.967-2.65-1.612
			c-0.924-0.672-1.879-1.367-2.857-1.861c-0.792-0.401-1.434-0.579-2.079-0.579c-0.447,0-0.815,0.085-1.167,0.168
			c-0.39,0.091-0.757,0.177-1.33,0.177c-0.459,0-0.974-0.055-1.576-0.169c-0.317-0.06-1.283-0.243-1.313-1.65
			c-0.027-1.246,0.768-2.664,1.604-2.861c1.109-0.255,1.662,0.083,3.2,2.001c1.25,1.555,3.012,1.56,4.714,1.565
			c0.673,0.002,1.37,0.005,2.079,0.095c1.073,0.135,1.686,0.626,1.93,1.544C177.846,58.967,177.283,60.444,176.946,60.842z"/>
	</g>
</g>
<g>
	<g>
		<path fill="#FFFFFF" stroke="#FFFFFF" stroke-miterlimit="10" d="M165.713,66.302c-0.045,0-4.503-0.033-4.503-2.876
			c0-0.452,0.033-0.943,0.064-1.435c0.107-1.662,0.219-3.382-0.731-4.395c-0.305-0.326-0.853-0.714-1.791-0.714
			c-0.001,0-0.001,0-0.002,0c-2.533,0.051-2.811,2.716-2.978,4.309c-0.046,0.442-0.113,1.085-0.209,1.364
			c-0.109,0.04-0.259,0.07-0.432,0.07c-0.193,0-0.561-0.041-0.843-0.313c-0.366-0.354-0.442-0.963-0.442-1.413
			c0-3.687-0.256-6.751-0.669-7.994c-2.096-6.298-4.659-7.238-6-7.238c-0.586,0-1.129,0.179-1.568,0.518
			c-1.693,1.299-0.094,3.643,1.932,6.61c0.699,1.024,1.834,2.686,2.04,3.364c-0.572,0.803-1.223,1.121-1.526,1.169
			c-0.424-0.452-1.143-2.141-1.628-3.28c-0.669-1.57-1.361-3.194-2.145-4.234c-1.062-1.407-3.872-4.677-7.024-4.677
			c-0.593,0-1.167,0.118-1.704,0.352c-0.87,0.379-1.367,1.059-1.729,1.556c-0.401,0.55-0.479,0.596-0.613,0.596
			c-0.097,0-0.278-0.024-0.578-0.138c-2.49-0.946-4.076-0.873-5.062,0.137c-0.79,0.808-0.866,1.968-0.844,2.888
			c0.005,0.216,0.033,0.454,0.066,0.707c0.131,1.028,0.162,1.272-1.132,1.527c-0.976,0.193-1.85,0.244-2.622,0.289
			c-1.504,0.087-3.058,0.179-3.652,1.676c-0.388,0.974-0.068,1.678,0.158,2.009c0.601,0.887,1.821,1.282,3.957,1.282
			c6.428,0,10.675,0.543,12.984,1.658c1.731,0.837,2.079,1.851,2.079,3.218c-0.004,3.24,3.144,4.092,5.226,4.655
			c0.594,0.16,1.459,0.395,1.788,0.599c-0.2,1.436,0.23,3.018,1.116,4.072c1.079,1.283,2.721,1.526,3.951,0.581
			c0.864-0.665,1.329-1.367,1.668-1.879c0.435-0.657,0.459-0.677,0.866-0.677c2.436,0,4.619,1.794,6.546,3.378
			c1.737,1.427,3.378,2.776,5.158,2.776c2.206,0,3.518-0.853,4.23-1.567c0.912-0.916,1.415-2.165,1.415-3.515
			C170.527,68.854,168.726,66.302,165.713,66.302z M149.547,51.425c-0.643-0.942-1.628-2.385-2.025-3.244
			c0.724,0.32,1.963,1.599,3.155,4.926C150.342,52.589,149.96,52.03,149.547,51.425z M167.391,73.119
			c-0.556,0.558-1.424,0.853-2.51,0.853c-0.91,0-2.285-1.131-3.615-2.224c-2.131-1.751-4.783-3.93-8.088-3.93
			c-1.725,0-2.401,1.02-2.891,1.764c-0.299,0.451-0.581,0.877-1.124,1.295c-0.179,0.135-0.262,0.193-0.61-0.22
			c-0.378-0.451-0.713-1.345-0.556-2.249c0.371-2.137-1.909-2.754-3.572-3.204c-2.374-0.641-3.433-1.127-3.432-2.308
			c0-1.605-0.357-3.912-3.451-5.407c-2.684-1.296-7.146-1.9-14.041-1.9c-0.47,0-0.837-0.024-1.12-0.057
			c0.264-0.024,0.549-0.04,0.798-0.055c0.808-0.047,1.814-0.106,2.952-0.332c3.521-0.696,3.205-3.163,3.07-4.218
			c-0.022-0.162-0.044-0.316-0.047-0.456c-0.021-0.906,0.125-1.103,0.154-1.133c0.044-0.045,0.508-0.306,2.459,0.436
			c0.526,0.2,0.997,0.298,1.443,0.298c1.414,0,2.114-0.96,2.577-1.594c0.253-0.346,0.47-0.645,0.736-0.76
			c1.729-0.751,4.326,1.584,5.819,3.561c0.606,0.803,1.267,2.354,1.849,3.722c1.14,2.675,1.84,4.208,3.014,4.631
			c1.249,0.451,2.974-0.318,4.146-1.789c0.04,0.873,0.066,1.888,0.066,3.055c0,1.667,0.644,2.637,1.183,3.16
			c0.665,0.641,1.564,0.996,2.532,0.996c0.645,0,1.278-0.163,1.785-0.459c1.007-0.593,1.143-1.894,1.274-3.151
			c0.089-0.846,0.221-2.124,0.575-2.193c0.233,0.326,0.137,1.794,0.086,2.584c-0.035,0.547-0.069,1.091-0.069,1.591
			c0,3.645,3.593,5.305,6.933,5.305c1.565,0,2.384,1.301,2.384,2.588C168.098,72.022,167.847,72.661,167.391,73.119z"/>
	</g>
</g>
<g>
	<g>
		<path fill="#FFFFFF" stroke="#FFFFFF" stroke-miterlimit="10" d="M147.896,59.656c-0.513-1.707-2.562-2.852-4.155-2.852
			c-1.347,0-2.331,0.819-2.507,2.085c-0.243,1.746,0.335,2.833,0.863,3.439c0.667,0.767,1.636,1.206,2.658,1.206
			c0.605,0,1.163-0.157,1.615-0.456C148.294,61.805,148.079,60.261,147.896,59.656z M145.029,61.052
			c-0.023,0.015-0.115,0.052-0.275,0.052c-0.118,0-0.525-0.027-0.826-0.372c-0.355-0.408-0.354-1.046-0.354-1.478
			c0,0,0.047-0.021,0.165-0.021c0.683,0,1.674,0.609,1.83,1.123C145.644,60.601,145.263,60.898,145.029,61.052z"/>
	</g>
</g>
<g>
	<g>
		<path fill="#FFFFFF" stroke="#FFFFFF" stroke-miterlimit="10" d="M128.709,18.259c-0.895-0.928-2.877-1.927-5.112-1.927
			c-0.657,0-1.296,0.089-1.902,0.265c-0.572,0.168-2.13,1.056-2.079,2.432c0.026,0.701,0.453,1.621,2.336,2.021
			c1.522,0.324,3.087,0.511,4.294,0.511c2.039,0,3.094-0.603,3.139-1.791C129.404,19.252,129.177,18.743,128.709,18.259z
			 M123.055,18.794c0.837-0.101,1.737,0.062,2.436,0.313C124.753,19.06,123.903,18.95,123.055,18.794z"/>
	</g>
</g>
<g>
	<g>
		<path fill="#FFFFFF" stroke="#FFFFFF" stroke-miterlimit="10" d="M135.216,13.914c-1.431-0.409-3.205-0.558-4.919-0.7
			c-1.431-0.119-3.826-0.32-4.243-0.708c-0.213-0.278-0.367-0.599-0.531-0.938c-0.515-1.068-1.221-2.531-3.988-2.692
			c-1.132-0.066-1.777-0.182-2.296-0.275c-0.797-0.145-1.482-0.233-2.635-0.046c-1.763,0.287-2.903,1.351-3.586,1.987
			c-0.152,0.142-0.281,0.267-0.395,0.351c-0.61,0.446-0.614,1.031-0.587,1.262c0.001,0.004,0.001,0.007,0.001,0.011
			c-1.029,0.334-1.986,0.564-2.839,0.767c-1.475,0.352-2.641,0.632-3.524,1.276c-0.168,0.123-0.378,0.267-0.611,0.43
			c-2.105,1.464-3.491,2.515-3.578,3.723c-0.034,0.487,0.143,0.939,0.504,1.276c0.673,0.623,1.674,0.967,2.816,0.967
			c0.872,0,1.791-0.205,2.657-0.593c1.519-0.686,6.401-1.724,10.046-2.136c1.182-0.134,3.861-0.294,6.696-0.463
			c11.925-0.711,11.93-0.762,12.076-2.086C136.332,14.831,136.087,14.163,135.216,13.914z M124.06,14.984
			c-2.995,0.179-5.58,0.333-6.826,0.474c-3.533,0.4-8.826,1.457-10.771,2.336c-0.702,0.316-1.486,0.434-2.047,0.356
			c0.624-0.537,1.588-1.206,2.035-1.519c0.25-0.174,0.475-0.33,0.655-0.462c0.49-0.357,1.494-0.598,2.658-0.876
			c0.969-0.232,2.07-0.494,3.297-0.91c0.88-0.296,2.083-0.703,2.126-1.799c0.01-0.243-0.04-0.448-0.124-0.622
			c0.503-0.441,1.118-0.88,1.93-1.012c0.795-0.13,1.12-0.086,1.817,0.039c0.552,0.098,1.307,0.233,2.584,0.309
			c1.341,0.078,1.504,0.417,1.941,1.322c0.199,0.414,0.426,0.882,0.79,1.358c0.313,0.409,0.768,0.703,1.336,0.922
			C124.975,14.929,124.505,14.957,124.06,14.984z"/>
	</g>
</g>
</svg>
