<?xml version="1.0" encoding="utf-8"?>
<!-- Generator: Adobe Illustrator 17.0.0, SVG Export Plug-In . SVG Version: 6.00 Build 0)  -->
<!DOCTYPE svg PUBLIC "-//W3C//DTD SVG 1.1//EN" "http://www.w3.org/Graphics/SVG/1.1/DTD/svg11.dtd">
<svg version="1.1" id="Layer_1" xmlns="http://www.w3.org/2000/svg" xmlns:xlink="http://www.w3.org/1999/xlink" x="0px" y="0px"
	 width="255.12px" height="153.07px" viewBox="0 0 255.12 153.07" enable-background="new 0 0 255.12 153.07" xml:space="preserve">
<g>
	<g>
		<path fill="#FFFFFF" stroke="#FFFFFF" stroke-miterlimit="10" d="M156.528,66.77l-19.45-19.45c-1.393-1.393-3.837-1.393-5.231,0
			L98.343,80.823c-0.697,0.697-1.08,1.626-1.08,2.615c0,0.991,0.383,1.919,1.08,2.615l19.448,19.45
			c0.697,0.697,1.626,1.081,2.615,1.081c0.992,0,1.92-0.384,2.617-1.081l33.506-33.503c0.697-0.697,1.08-1.625,1.08-2.615
			C157.608,68.396,157.225,67.467,156.528,66.77z M154.824,70.295L121.317,103.8c-0.481,0.483-1.339,0.483-1.821,0l-19.449-19.45
			c-0.242-0.24-0.375-0.564-0.375-0.91c0-0.346,0.134-0.67,0.375-0.911l33.505-33.503c0.241-0.242,0.565-0.375,0.911-0.375
			s0.669,0.133,0.91,0.374l19.451,19.449c0.242,0.241,0.375,0.565,0.375,0.911C155.199,69.73,155.065,70.054,154.824,70.295z"/>
	</g>
</g>
<g>
	<g>
		<path fill="#FFFFFF" stroke="#FFFFFF" stroke-miterlimit="10" d="M175.998,40.281l-12.431-12.432
			c-1.396-1.393-3.839-1.393-5.232,0l-15.043,15.043c-0.697,0.697-1.08,1.626-1.08,2.615c0,0.99,0.383,1.919,1.08,2.615
			l12.431,12.432c0.698,0.697,1.627,1.08,2.617,1.08s1.919-0.383,2.615-1.08l15.044-15.043
			C177.438,44.071,177.438,41.724,175.998,40.281z M174.294,43.807l-15.043,15.043c-0.483,0.482-1.341,0.482-1.824,0l-12.431-12.431
			c-0.242-0.241-0.375-0.564-0.375-0.911c0-0.346,0.134-0.67,0.375-0.911l15.043-15.043c0.241-0.242,0.565-0.375,0.911-0.375
			c0.346,0,0.671,0.133,0.912,0.375l12.43,12.43C174.795,42.487,174.795,43.304,174.294,43.807z"/>
	</g>
</g>
<g>
	<g>
		<path fill="#FFFFFF" stroke="#FFFFFF" stroke-miterlimit="10" d="M123.407,26.595L98.624,1.81
			c-1.167-1.165-2.723-1.808-4.38-1.808c-1.658,0-3.214,0.642-4.38,1.808L52.833,38.841c-1.167,1.165-1.808,2.721-1.808,4.379
			c0,1.658,0.641,3.213,1.808,4.379l24.785,24.786c1.165,1.165,2.721,1.808,4.379,1.808c1.658,0,3.213-0.644,4.379-1.809
			l37.032-37.03C125.82,32.938,125.82,29.009,123.407,26.595z M121.703,33.648L84.671,70.679c-1.422,1.42-3.927,1.422-5.349,0
			L54.537,45.894c-0.711-0.71-1.102-1.66-1.102-2.674c0-1.014,0.39-1.963,1.102-2.674l37.03-37.03
			c0.711-0.711,1.661-1.103,2.676-1.103s1.965,0.392,2.676,1.103l24.785,24.783C123.177,29.773,123.177,32.172,121.703,33.648z"/>
	</g>
</g>
<g>
	<g>
		<path fill="#FFFFFF" stroke="#FFFFFF" stroke-miterlimit="10" d="M116.797,64.072L73.053,20.326c-0.471-0.471-1.233-0.471-1.704,0
			c-0.471,0.471-0.471,1.233,0,1.704l43.744,43.745c0.235,0.235,0.544,0.353,0.852,0.353s0.617-0.117,0.852-0.353
			C117.269,65.305,117.269,64.543,116.797,64.072z"/>
	</g>
</g>
<g>
	<g>
		<path fill="#FFFFFF" stroke="#FFFFFF" stroke-miterlimit="10" d="M202.285,105.472l-24.785-24.783
			c-1.165-1.165-2.721-1.808-4.38-1.808c-1.657,0-3.213,0.641-4.38,1.808l-37.03,37.03c-1.167,1.165-1.809,2.721-1.809,4.379
			c0,1.658,0.642,3.213,1.809,4.379l24.783,24.785c1.165,1.165,2.721,1.808,4.379,1.808c1.658,0,3.214-0.642,4.379-1.808
			l37.033-37.03C204.698,111.815,204.698,107.886,202.285,105.472z M200.579,112.524l-37.032,37.031
			c-1.421,1.42-3.927,1.421-5.349,0l-24.783-24.785c-0.711-0.711-1.103-1.661-1.103-2.674s0.392-1.963,1.103-2.674l37.03-37.029
			c0.711-0.711,1.661-1.103,2.676-1.103s1.965,0.392,2.674,1.102l24.785,24.783C202.053,108.649,202.053,111.048,200.579,112.524z"
			/>
	</g>
</g>
<g>
	<g>
		<path fill="#FFFFFF" stroke="#FFFFFF" stroke-miterlimit="10" d="M183.768,131.041l-43.993-43.993
			c-0.471-0.471-1.233-0.471-1.704,0c-0.471,0.471-0.471,1.233,0,1.704l43.993,43.993c0.235,0.235,0.544,0.353,0.852,0.353
			s0.616-0.118,0.852-0.353C184.239,132.274,184.239,131.512,183.768,131.041z"/>
	</g>
</g>
<g>
	<g>
		<path fill="#FFFFFF" stroke="#FFFFFF" stroke-miterlimit="10" d="M178.949,104.021c-0.471-0.471-1.233-0.471-1.704,0
			l-33.143,33.143c-0.471,0.471-0.471,1.233,0,1.704c0.235,0.235,0.544,0.353,0.852,0.353c0.307,0,0.616-0.117,0.852-0.353
			l33.143-33.143C179.421,105.254,179.421,104.492,178.949,104.021z"/>
	</g>
</g>
<g>
	<g>
		<path fill="#FFFFFF" stroke="#FFFFFF" stroke-miterlimit="10" d="M189.751,93.22c-0.471-0.471-1.233-0.471-1.704,0l-3.739,3.737
			c-0.471,0.47-0.471,1.233,0,1.704c0.235,0.235,0.544,0.353,0.852,0.353c0.309,0,0.617-0.118,0.852-0.353l3.739-3.737
			C190.222,94.455,190.222,93.692,189.751,93.22z"/>
	</g>
</g>
<g>
	<g>
		<path fill="#FFFFFF" stroke="#FFFFFF" stroke-miterlimit="10" d="M100.072,25.145c-0.471-0.471-1.233-0.471-1.704,0L65.224,58.286
			c-0.471,0.471-0.471,1.233,0,1.704c0.235,0.235,0.544,0.353,0.852,0.353s0.617-0.117,0.852-0.353l33.144-33.142
			C100.544,26.378,100.544,25.616,100.072,25.145z"/>
	</g>
</g>
<g>
	<g>
		<path fill="#FFFFFF" stroke="#FFFFFF" stroke-miterlimit="10" d="M110.875,14.343c-0.471-0.471-1.233-0.471-1.704,0l-3.739,3.737
			c-0.471,0.47-0.471,1.233,0,1.704c0.235,0.235,0.544,0.353,0.852,0.353c0.307,0,0.616-0.118,0.852-0.353l3.739-3.737
			C111.346,15.577,111.346,14.815,110.875,14.343z"/>
	</g>
</g>
<g>
	<g>
		<path fill="#FFFFFF" stroke="#FFFFFF" stroke-miterlimit="10" d="M109.315,83.957c-0.471-0.471-1.233-0.471-1.704,0l-4.832,4.831
			c-0.471,0.471-0.471,1.233,0,1.704c0.235,0.235,0.544,0.353,0.852,0.353c0.309,0,0.617-0.118,0.852-0.353l4.832-4.831
			C109.787,85.19,109.787,84.428,109.315,83.957z"/>
	</g>
</g>
<g>
	<g>
		<path fill="#FFFFFF" stroke="#FFFFFF" stroke-miterlimit="10" d="M145.923,47.348c-0.471-0.471-1.233-0.471-1.704,0
			l-27.775,27.775c-0.471,0.471-0.471,1.233,0,1.704c0.235,0.235,0.544,0.353,0.852,0.353c0.309,0,0.617-0.118,0.852-0.353
			l27.775-27.775C146.395,48.581,146.395,47.819,145.923,47.348z"/>
	</g>
</g>
<g>
	<g>
		<path fill="#FFFFFF" stroke="#FFFFFF" stroke-miterlimit="10" d="M156.914,58.336c-0.471-0.471-1.233-0.471-1.704,0l-4.188,4.188
			c-0.471,0.471-0.471,1.234,0,1.704c0.235,0.235,0.544,0.353,0.852,0.353s0.617-0.118,0.852-0.353l4.188-4.188
			C157.385,59.569,157.385,58.806,156.914,58.336z"/>
	</g>
</g>
<g>
	<g>
		<path fill="#FFFFFF" stroke="#FFFFFF" stroke-miterlimit="10" d="M173.355,30.495c-2.623-2.623-6.62-3.289-9.949-1.657
			c-0.597,0.293-0.844,1.015-0.552,1.613c0.294,0.598,1.015,0.846,1.614,0.552c2.402-1.176,5.29-0.697,7.183,1.197
			c1.892,1.892,2.374,4.779,1.196,7.182c-0.292,0.598-0.045,1.32,0.552,1.613c0.17,0.083,0.352,0.123,0.529,0.123
			c0.446,0,0.874-0.248,1.085-0.675C176.643,37.114,175.976,33.116,173.355,30.495z"/>
	</g>
</g>
<g>
	<g>
		<path fill="#FFFFFF" stroke="#FFFFFF" stroke-miterlimit="10" d="M106.191,97.548c-8.883-8.884-19.259-14.236-26.508-13.647
			c-0.468,0.039-0.871,0.345-1.033,0.786c-0.163,0.441-0.053,0.936,0.278,1.268l38.856,38.857c0.229,0.23,0.538,0.353,0.852,0.353
			c0.14,0,0.28-0.024,0.415-0.075c0.441-0.161,0.747-0.565,0.786-1.033C120.428,116.833,115.072,106.429,106.191,97.548z
			 M82.799,86.417c6.326,0.889,14.582,5.731,21.69,12.836c7.104,7.106,11.945,15.404,12.836,21.69L82.799,86.417z"/>
	</g>
</g>
</svg>
