<?xml version="1.0" encoding="iso-8859-1"?>
<!-- Generator: Adobe Illustrator 19.0.0, SVG Export Plug-In . SVG Version: 6.00 Build 0)  -->
<svg version="1.1" id="Layer_1" xmlns="http://www.w3.org/2000/svg" xmlns:xlink="http://www.w3.org/1999/xlink" x="0px" y="0px"
	 viewBox="0 0 508 508" style="enable-background:new 0 0 508 508;" xml:space="preserve">
<g>
	<path style="fill:#ACD9EA;" d="M401.6,105.6c-6.4-6.4-15.2-8-23.6-5.6l28.8,28.8C410,120.8,408,111.6,401.6,105.6z"/>
	<path style="fill:#ACD9EA;" d="M276.8,159.6c-1.6,0-3.2,0.8-4.4,2L161.2,272.8c-1.2,1.2-2,2.8-2,4.4s0.8,3.2,2,4.4L226,346
		c2.4,2.4,6.4,2.4,8.8,0L346,234.8c2.4-2.4,2.4-6.4,0-8.8l-64.4-64.4C280,160,278.4,159.6,276.8,159.6z"/>
</g>
<path style="fill:#CDEEF9;" d="M360.8,196.8l50-50c2.4-2.4,2.4-6.4,0-8.8l-41.2-41.2c-1.2-1.2-2.8-2-4.4-2s-3.2,0.8-4.4,2l-50,50
	c-2.4,2.4-2.4,6.4,0,8.8l41.2,41.2C354,199.2,358.4,199.2,360.8,196.8z"/>
<path style="fill:#F4EFEF;" d="M176,173.2l60-60c2.8-2.8,4.4-6.4,4.4-10.4s-1.6-7.6-4.4-10.4l-40.8-40.8L124.8,122L176,173.2z"/>
<g>
	<path style="fill:#E8E3E3;" d="M52.8,196.4L92.4,236c5.6,5.6,15.2,5.6,20.8,0l60-60l-50-50L52.8,196.4z"/>
	<path style="fill:#E8E3E3;" d="M195.6,51.2L154,10c-2.8-2.8-6.4-4.4-10.4-4.4S136,7.2,133.2,10l-60,60l52,51.2L195.6,51.2z"/>
</g>
<path style="fill:#F4EFEF;" d="M70.4,73.2l-60,60C7.6,136,6,139.6,6,143.6s1.6,7.6,4.4,10.4L50,193.6l70.4-70.4L70.4,73.2z"/>
<g>
	<path style="fill:#E8E3E3;" d="M332,334.8l-60,60c-5.6,5.6-5.6,14.8,0,20.8l39.6,39.6l70.4-70.4L332,334.8z"/>
	<path style="fill:#E8E3E3;" d="M437.6,434.8l60-60c2.8-2.8,4.4-6.4,4.4-10.4s-1.6-7.6-4.4-10.4l-42-41.2l-70.4,70.4L437.6,434.8z"
		/>
</g>
<g>
	<path style="fill:#F4EFEF;" d="M456.8,313.2L415.6,272c-2.8-2.8-6.4-4.4-10.4-4.4s-7.6,1.6-10.4,4.4l-60,60l51.6,51.2L456.8,313.2z
		"/>
	<path style="fill:#F4EFEF;" d="M314.4,458l39.6,39.6c5.6,5.6,15.2,5.6,20.8,0l60-60l-50-50L314.4,458z"/>
</g>
<path style="fill:#AEB1B4;" d="M178.8,328c-26-26-56.8-42.8-78.8-43.6l122.4,122.4C222,384.8,204.8,354,178.8,328z"/>
<path d="M230.4,353.6c-3.2,0-6.4-1.2-8.8-3.6l-64.4-64.4c-4.8-4.8-4.8-12.4,0-17.2l111.2-111.2c4.8-4.8,12.4-4.8,17.2,0l64.4,64.4
	c4.8,4.8,4.8,12.4,0,17.2L238.8,350C236.4,352.4,233.6,353.6,230.4,353.6z M276.8,161.6c-1.2,0-2,0.4-3.2,1.2L162.4,274
	c-1.6,1.6-1.6,4.4,0,6l64.4,64.4c1.6,1.6,4.4,1.6,6,0L344,233.2l0,0c1.6-1.6,1.6-4.4,0-6l-64.4-64.4
	C279.2,162,278,161.6,276.8,161.6z"/>
<path d="M356,204.4c-3.2,0-6.4-1.2-8.8-3.6L306,159.6c-2.4-2.4-3.6-5.2-3.6-8.8c0-3.2,1.2-6.4,3.6-8.8l50-50
	c2.4-2.4,5.2-3.6,8.8-3.6l0,0c3.2,0,6.4,1.2,8.8,3.6l41.2,41.2c4.8,4.8,4.8,12.4,0,17.2l0,0l-50,50
	C362.4,203.2,359.2,204.4,356,204.4z M364.8,96.8c-1.2,0-2.4,0.4-3.2,1.2l-50,50c-0.8,0.8-1.2,2-1.2,3.2s0.4,2.4,1.2,3.2l41.2,41.2
	c1.6,1.6,4.4,1.6,6,0l50-50c1.6-1.6,1.6-4.4,0-6l-41.2-41.2C367.2,97.2,366,96.8,364.8,96.8L364.8,96.8z"/>
<path d="M102.8,246.4c-5.6,0-10.8-2-14.4-6L6,158c-8-8-8-21.2,0-29.2L128.8,6c4-4,9.2-6,14.4-6s10.8,2,14.4,6L240,88.4
	c8,8,8,21.2,0,29.2L117.2,240.4C113.6,244,108.4,246.4,102.8,246.4z M143.6,8c-3.2,0-6.4,1.2-8.8,3.6L12,134.4
	c-4.8,4.8-4.8,12.8,0,17.6l82.4,82.4c4.8,4.8,13.2,4.8,17.6,0l122.8-122.8c4.8-4.8,4.8-12.8,0-17.6l-82.4-82.4
	C150,9.2,146.8,8,143.6,8z"/>
<path d="M215.6,219.6c-1.2,0-2-0.4-2.8-1.2L67.6,73.2c-1.6-1.6-1.6-4,0-5.6s4-1.6,5.6,0l145.2,145.2c1.6,1.6,1.6,4,0,5.6
	C217.6,219.2,216.4,219.6,215.6,219.6z"/>
<path d="M364.4,508c-5.6,0-10.8-2-14.4-6l-82.4-82.4c-8-8-8-21.2,0-29.2l122.8-122.8c8-8,21.2-8,29.2,0L502,350c4,4,6,9.2,6,14.4
	c0,5.6-2,10.8-6,14.4L379.2,501.6C375.2,506,370,508,364.4,508z M405.2,269.6c-3.2,0-6.4,1.2-8.8,3.6L273.6,396
	c-4.8,4.8-4.8,12.8,0,17.6L356,496c4.8,4.8,13.2,4.8,17.6,0l122.8-122.8l0,0c2.4-2.4,3.6-5.6,3.6-8.8c0-3.2-1.2-6.4-3.6-8.8
	L414,273.2C411.6,270.8,408.4,269.6,405.2,269.6z"/>
<path d="M437.6,441.6c-1.2,0-2-0.4-2.8-1.2l-146-146c-1.6-1.6-1.6-4,0-5.6s4-1.6,5.6,0l146,146c1.6,1.6,1.6,4,0,5.6
	C439.6,441.2,438.8,441.6,437.6,441.6z"/>
<path d="M311.6,462c-1.2,0-2-0.4-2.8-1.2c-1.6-1.6-1.6-4,0-5.6l110-110c1.6-1.6,4-1.6,5.6,0s1.6,4,0,5.6l-110,110
	C313.6,461.6,312.8,462,311.6,462z"/>
<path d="M445.2,328.8c-1.2,0-2-0.4-2.8-1.2c-1.6-1.6-1.6-4,0-5.6l12.4-12.4c1.6-1.6,4-1.6,5.6,0s1.6,4,0,5.6L448,327.6
	C447.2,328.4,446,328.8,445.2,328.8z"/>
<path d="M50,200.4c-1.2,0-2-0.4-2.8-1.2c-1.6-1.6-1.6-4,0-5.6l110-110c1.6-1.6,4-1.6,5.6,0s1.6,4,0,5.6l-110,110
	C52,200,50.8,200.4,50,200.4z"/>
<path d="M183.2,66.8c-1.2,0-2-0.4-2.8-1.2c-1.6-1.6-1.6-4,0-5.6l12.4-12.4c1.6-1.6,4-1.6,5.6,0s1.6,4,0,5.6L186,65.6
	C185.6,66.4,184.4,66.8,183.2,66.8z"/>
<path d="M174.4,301.6c-1.2,0-2-0.4-2.8-1.2c-1.6-1.6-1.6-4,0-5.6l16-16c1.6-1.6,4-1.6,5.6,0s1.6,4,0,5.6l-16,16
	C176.8,301.2,175.6,301.6,174.4,301.6z"/>
<path d="M220,256c-1.2,0-2-0.4-2.8-1.2c-1.6-1.6-1.6-4,0-5.6l92-92c1.6-1.6,4-1.6,5.6,0s1.6,4,0,5.6l-92,92
	C222,255.6,220.8,256,220,256z"/>
<path d="M334.8,214.4c-1.2,0-2-0.4-2.8-1.2c-1.6-1.6-1.6-4,0-5.6l14-14c1.6-1.6,4-1.6,5.6,0s1.6,4,0,5.6l-14,14
	C336.8,214,335.6,214.4,334.8,214.4z"/>
<path d="M408,136.4c-0.4,0-1.2,0-1.6-0.4c-2-0.8-2.8-3.2-2-5.2c4-8,2.4-17.6-4-24s-16-8-24-4c-2,0.8-4.4,0-5.2-2s0-4.4,2-5.2
	c11.2-5.6,24.4-3.2,33.2,5.6c8.8,8.8,10.8,22,5.6,33.2C410.8,135.6,409.2,136.4,408,136.4z"/>
<path d="M224.4,415.2c-1.2,0-2-0.4-2.8-1.2L92.8,285.2c-1.2-1.2-1.6-2.8-0.8-4.4c0.4-1.6,2-2.4,3.6-2.8c24-2,58.4,16,88,45.2
	c29.6,29.6,47.2,64,45.2,88c0,1.6-1.2,2.8-2.8,3.6C225.2,415.2,224.8,415.2,224.4,415.2z M105.6,286.8L220,401.2
	c-2.8-20.8-19.2-48.4-42.8-72C154,306,126.4,289.6,105.6,286.8z"/>
<g>
</g>
<g>
</g>
<g>
</g>
<g>
</g>
<g>
</g>
<g>
</g>
<g>
</g>
<g>
</g>
<g>
</g>
<g>
</g>
<g>
</g>
<g>
</g>
<g>
</g>
<g>
</g>
<g>
</g>
</svg>
